# xmcd
#
# Track frame offsets:
# 150
# 4410
# 18870
# 30322
# 42167
# 56277
# 69208
# 80759
# 95340
# 114154
# 140389
# 150820
# 168563
# 185711
# 217061
#
# Disc length: 3050 seconds
#
#
# Revision: 0
# Processed by: cddbd v1.5PL3 Copyright (c) Steve Scherf et al.
# Submitted via: FreeRIP 2.70 
#
DISCID=b50be80f
DTITLE=Vários - Nescafé and Blues
DYEAR=2004
DGENRE=Blues
TTITLE0=Faixa em CD ROM "Blues Menu"
TTITLE1=T-Bone Walker - Born to be no good
TTITLE2=John Lee Hooker - Boom boom
TTITLE3=Otis Rush - All your love
TTITLE4=Sonny Boy Williamson - Help me
TTITLE5=Clarence Gatemouth Brown - My time is expensive
TTITLE6=Buddy Guy - My mother
TTITLE7=Eric Clapton - J Beck - J Page - I see a man downstars
TTITLE8=Eric Clapton - J Beck - J Page - New York city blues
TTITLE9=Eric Clapton - J Beck - J Page - Little red rooster
TTITLE10=Eric Clapton - West Coast Idea
TTITLE11=John Mayall and The Bluesbreakers - Telephone Blues
TTITLE12=Savoy Brown - Cold Blooded Woman
TTITLE13=Albert King - Kansas City
TTITLE14=Robert Cray - That's what I'll do
EXTD=
EXTT0=
EXTT1=
EXTT2=
EXTT3=
EXTT4=
EXTT5=
EXTT6=
EXTT7=
EXTT8=
EXTT9=
EXTT10=
EXTT11=
EXTT12=
EXTT13=
EXTT14=
PLAYORDER=
